<svg xmlns="http://www.w3.org/2000/svg" xmlns:xlink="http://www.w3.org/1999/xlink" width="182.534" height="189.642" viewBox="0 0 182.534 189.642">
  <defs>
    <linearGradient id="linear-gradient" x1="-52.124" y1="0.5" x2="-51.123" y2="0.5" gradientUnits="objectBoundingBox">
      <stop offset="0" stop-color="#09005d"/>
      <stop offset="1" stop-color="#1a0f91"/>
    </linearGradient>
    <linearGradient id="linear-gradient-2" x1="-129.424" y1="0.5" x2="-128.424" y2="0.5" gradientUnits="objectBoundingBox">
      <stop offset="0" stop-color="#febbba"/>
      <stop offset="1" stop-color="#ff928e"/>
    </linearGradient>
    <linearGradient id="linear-gradient-3" x1="-30.122" y1="0.501" x2="-29.122" y2="0.501" xlink:href="#linear-gradient"/>
    <linearGradient id="linear-gradient-4" x1="-119.741" y1="0.499" x2="-118.744" y2="0.499" xlink:href="#linear-gradient-2"/>
    <linearGradient id="linear-gradient-5" x1="-18.413" y1="0.5" x2="-17.413" y2="0.5" xlink:href="#linear-gradient"/>
    <linearGradient id="linear-gradient-6" y1="0.5" x2="0.999" y2="0.5" gradientUnits="objectBoundingBox">
      <stop offset="0" stop-color="#4f52ff"/>
      <stop offset="1" stop-color="#4042e2"/>
    </linearGradient>
    <linearGradient id="linear-gradient-7" x1="-9.784" y1="-2.54" x2="-11.307" y2="4.744" gradientUnits="objectBoundingBox">
      <stop offset="0" stop-color="#ff928e"/>
      <stop offset="1" stop-color="#fe7062"/>
    </linearGradient>
    <linearGradient id="linear-gradient-8" x1="-27.946" y1="0.5" x2="-26.946" y2="0.5" xlink:href="#linear-gradient-2"/>
    <linearGradient id="linear-gradient-9" x1="1.416" y1="-2.107" x2="0.975" y2="-0.759" xlink:href="#linear-gradient-7"/>
    <linearGradient id="linear-gradient-10" x1="-22.415" y1="-1.666" x2="-24.624" y2="1.591" xlink:href="#linear-gradient-2"/>
    <linearGradient id="linear-gradient-11" x1="-21.198" y1="-0.67" x2="-22.432" y2="2.856" xlink:href="#linear-gradient-2"/>
    <linearGradient id="linear-gradient-12" x1="-37.783" y1="-1.142" x2="-40.433" y2="2.814" xlink:href="#linear-gradient-2"/>
    <linearGradient id="linear-gradient-13" x1="-36.292" y1="-0.329" x2="-37.509" y2="0.966" xlink:href="#linear-gradient-2"/>
    <linearGradient id="linear-gradient-14" x1="-26.651" y1="0.197" x2="-25.607" y2="0.197" xlink:href="#linear-gradient"/>
    <linearGradient id="linear-gradient-15" x1="-107.525" y1="0.364" x2="-104.824" y2="-2.174" xlink:href="#linear-gradient-2"/>
    <linearGradient id="linear-gradient-16" x1="15.026" y1="9.411" x2="14.683" y2="13.821" gradientUnits="objectBoundingBox">
      <stop offset="0" stop-color="#50e7b7"/>
      <stop offset="0.996" stop-color="#323992"/>
    </linearGradient>
    <linearGradient id="linear-gradient-17" x1="15.025" y1="9.411" x2="14.682" y2="13.821" xlink:href="#linear-gradient-16"/>
  </defs>
  <g id="ilustracion_nomina" data-name="ilustracion nomina" transform="translate(-160.498 -58.221)">
    <g id="Grupo_924" data-name="Grupo 924" transform="translate(160.498 58.221)">
      <path id="Trazado_475" data-name="Trazado 475" d="M1746.638,151.909c3.828,18.949,21.589,130.143-79.762,165.554,0,0-30.539-70.19,77.07-166.452A1.635,1.635,0,0,1,1746.638,151.909Z" transform="translate(-1583.549 -145.717)" fill="#209fd0"/>
      <path id="Trazado_476" data-name="Trazado 476" d="M1965.254,562.449c-1.975,5.855-4.066,11.663-6.214,17.46s-4.361,11.557-6.642,17.3c-4.562,11.478-9.377,22.862-14.546,34.087s-10.681,22.3-16.779,33.062q-4.554,8.086-9.694,15.824a156.247,156.247,0,0,1-11.125,14.894.663.663,0,0,1-1.009-.861h0a154.6,154.6,0,0,0,11.1-14.71q5.156-7.658,9.731-15.7c6.135-10.692,11.684-21.721,16.911-32.893s10.09-22.524,14.7-33.97q3.461-8.585,6.727-17.249c2.17-5.776,4.292-11.573,6.293-17.408h0a.281.281,0,0,1,.359-.174A.265.265,0,0,1,1965.254,562.449Z" transform="translate(-1807.292 -535.486)" fill="#fff" opacity="0.45"/>
      <path id="Trazado_477" data-name="Trazado 477" d="M2065.005,1159.525s-1.294-18.865,15.961-39.625c16.009-19.261,55.581-64.044,63.516-87.593a1.014,1.014,0,0,1,1.975.216,124.716,124.716,0,0,1-15.892,72.524C2107.746,1145.185,2065.005,1159.525,2065.005,1159.525Z" transform="translate(-1964.43 -980.213)" fill="#209fd0"/>
      <path id="Trazado_478" data-name="Trazado 478" d="M2226.137,1455.016a43.578,43.578,0,0,1-1.1,7.745c-.069.317-.132.639-.206.956l-.243.95-.486,1.9-.565,1.88c-.2.623-.365,1.257-.6,1.869a92.571,92.571,0,0,1-6.3,14.361c-.581,1.177-1.283,2.281-1.938,3.416l-1,1.69c-.169.28-.322.57-.507.839l-.539.818-2.159,3.279c-.348.554-.75,1.072-1.135,1.6l-1.162,1.584-1.161,1.584-.586.787-.618.76-2.476,3.047c-.417.5-.818,1.024-1.246,1.515l-1.288,1.473-2.571,2.951-2.6,2.92c-.871.972-1.732,1.948-2.619,2.909-1.758,1.927-3.527,3.849-5.317,5.745-1.779,1.911-3.585,3.791-5.385,5.681l-5.449,5.612c-3.638,3.733-7.281,7.46-10.792,11.3-.892.95-1.732,1.938-2.593,2.914-.438.486-.839.993-1.251,1.494s-.829,1-1.225,1.515c-.771,1.045-1.579,2.059-2.276,3.157l-.544.808c-.09.137-.185.269-.269.406l-.243.422-.971,1.684-.005.005a.143.143,0,0,1-.253-.132,46.586,46.586,0,0,1,4.155-6.653c.386-.528.8-1.035,1.2-1.552s.8-1.035,1.225-1.531c.84-1,1.668-2.017,2.54-2.988l1.294-1.473c.433-.486.882-.961,1.32-1.447l1.325-1.441,1.336-1.431c1.779-1.906,3.58-3.8,5.375-5.686,3.585-3.786,7.175-7.561,10.718-11.378s7.033-7.682,10.491-11.579l2.566-2.946,1.283-1.473c.428-.491.829-1,1.246-1.5l2.476-3.009.618-.75.581-.781,1.162-1.563a114.478,114.478,0,0,0,8.506-13.031,92.075,92.075,0,0,0,6.542-14.124c.243-.6.422-1.23.639-1.843l.623-1.848.544-1.874.274-.935c.084-.312.158-.628.238-.945.153-.634.322-1.262.459-1.9l.391-1.911c.217-1.283.449-2.566.538-3.865a.017.017,0,0,1,.016-.016C2226.132,1455,2226.137,1455.005,2226.137,1455.016Z" transform="translate(-2051.063 -1381.252)" fill="#fff" opacity="0.45"/>
      <path id="Trazado_479" data-name="Trazado 479" d="M160.5,488.475a11.917,11.917,0,0,1,11.869-11.964l101.346-.412a10.5,10.5,0,0,1,10.528,9.921l8.078,146.906a7.746,7.746,0,0,1-7.561,8.168l-116.146,2.582a7.351,7.351,0,0,1-7.513-7.318Z" transform="translate(-160.498 -454.035)" fill="#3d3f68"/>
      <path id="Trazado_480" data-name="Trazado 480" d="M323.2,460.071a3.461,3.461,0,0,1,3.928-3.453c13.838,1.874,61.431,7.682,100.781,4.662a3.2,3.2,0,0,1,3.448,3.02L439.2,611.888a3.687,3.687,0,0,1-3.458,3.875c-16.547.977-84.7,4.768-109.018,2.217a2.92,2.92,0,0,1-2.614-2.888Z" transform="translate(-314.609 -435.553)" fill="#303351"/>
      <path id="Trazado_481" data-name="Trazado 481" d="M354.1,532.46a3.329,3.329,0,0,1,3.78-3.321c13.321,1.806,59.118,7.392,96.985,4.488a3.079,3.079,0,0,1,3.316,2.9l7.55,142.033a3.543,3.543,0,0,1-3.332,3.728c-15.924.945-81.515,4.588-104.91,2.133a2.806,2.806,0,0,1-2.513-2.777Z" transform="translate(-343.877 -504.246)" fill="#e6e7ec"/>
      <path id="Trazado_482" data-name="Trazado 482" d="M611.81,775.375H522.449a.549.549,0,0,1-.549-.549V763.749a.549.549,0,0,1,.549-.549H611.81a.549.549,0,0,1,.549.549v11.077A.552.552,0,0,1,611.81,775.375Z" transform="translate(-502.819 -725.978)" fill="#fff" opacity="0.58"/>
      <path id="Trazado_483" data-name="Trazado 483" d="M609.937,1964.093H518.411a.312.312,0,0,1-.312-.312v-5.47a.312.312,0,0,1,.312-.312h91.526a.312.312,0,0,1,.312.312v5.47A.316.316,0,0,1,609.937,1964.093Z" transform="translate(-499.219 -1857.695)" fill="#fff" opacity="0.58"/>
      <path id="Trazado_484" data-name="Trazado 484" d="M610.022,2141.993H518.327a.226.226,0,0,1-.227-.227v-5.639a.225.225,0,0,1,.227-.227h91.695a.225.225,0,0,1,.227.227v5.639A.232.232,0,0,1,610.022,2141.993Z" transform="translate(-499.219 -2026.202)" fill="#fff" opacity="0.58"/>
      <path id="Trazado_485" data-name="Trazado 485" d="M613.3,3157.893H519.775a.273.273,0,0,1-.275-.274v-5.544a.273.273,0,0,1,.275-.275H613.3a.273.273,0,0,1,.274.275v5.544A.276.276,0,0,1,613.3,3157.893Z" transform="translate(-500.545 -2988.464)" fill="#fff" opacity="0.58"/>
      <path id="Trazado_486" data-name="Trazado 486" d="M607.936,1169.428H520.307a2.206,2.206,0,0,1-2.207-2.207v-32.814a2.206,2.206,0,0,1,2.207-2.207h86.14a2.208,2.208,0,0,1,2.207,2.107l1.484,32.809A2.207,2.207,0,0,1,607.936,1169.428Z" transform="translate(-499.219 -1075.496)" fill="#fff" opacity="0.25"/>
      <path id="Trazado_487" data-name="Trazado 487" d="M602.774,1163.614H515.15a2.552,2.552,0,0,1-2.55-2.55V1128.25a2.552,2.552,0,0,1,2.55-2.55h86.141a2.551,2.551,0,0,1,2.55,2.439l1.484,32.809a2.545,2.545,0,0,1-2.55,2.666Zm-87.624-37.228a1.867,1.867,0,0,0-1.864,1.864v32.809a1.864,1.864,0,0,0,1.864,1.864h87.624a1.868,1.868,0,0,0,1.864-1.948l-1.484-32.809a1.864,1.864,0,0,0-1.864-1.779Z" transform="translate(-494.01 -1069.339)" fill="#fff"/>
      <path id="Trazado_488" data-name="Trazado 488" d="M610.662,2413.633H522.3a2.805,2.805,0,0,1-2.8-2.8V2379.2a2.805,2.805,0,0,1,2.8-2.8h87.133a2.8,2.8,0,0,1,2.8,2.693l1.225,31.626A2.8,2.8,0,0,1,610.662,2413.633Z" transform="translate(-500.545 -2254.004)" fill="#fff" opacity="0.25"/>
      <path id="Trazado_489" data-name="Trazado 489" d="M604.5,2407.82H516.147a3.148,3.148,0,0,1-3.147-3.147v-31.626a3.151,3.151,0,0,1,3.147-3.146H603.28a3.136,3.136,0,0,1,3.141,3.025l1.225,31.626a3.148,3.148,0,0,1-3.141,3.268Zm-88.358-37.228a2.463,2.463,0,0,0-2.46,2.46v31.626a2.463,2.463,0,0,0,2.46,2.46H604.5a2.462,2.462,0,0,0,2.46-2.555l-1.225-31.626a2.453,2.453,0,0,0-2.455-2.365Z" transform="translate(-494.388 -2247.847)" fill="#fff"/>
      <rect id="Rectángulo_684" data-name="Rectángulo 684" width="0.686" height="37.233" transform="translate(45.834 56.709) rotate(-0.952)" fill="#fff"/>
      <rect id="Rectángulo_685" data-name="Rectángulo 685" width="0.686" height="37.239" transform="translate(79.537 56.708) rotate(-1.547)" fill="#fff"/>
      <rect id="Rectángulo_686" data-name="Rectángulo 686" width="63.406" height="0.686" transform="matrix(1, -0.014, 0.014, 1, 46.477, 68.114)" fill="#fff"/>
      <rect id="Rectángulo_687" data-name="Rectángulo 687" width="63.875" height="0.686" transform="translate(46.61 82.174)" fill="#fff"/>
      <rect id="Rectángulo_688" data-name="Rectángulo 688" width="37.228" height="0.686" transform="translate(45.827 159.625) rotate(-89.292)" fill="#fff"/>
      <rect id="Rectángulo_689" data-name="Rectángulo 689" width="65.248" height="0.686" transform="translate(46.843 130.939)" fill="#fff"/>
      <rect id="Rectángulo_690" data-name="Rectángulo 690" width="65.935" height="0.686" transform="translate(46.383 139.867)" fill="#fff"/>
      <rect id="Rectángulo_691" data-name="Rectángulo 691" width="0.686" height="66.193" transform="translate(46.473 149.94) rotate(-89.285)" fill="#fff"/>
      <path id="Trazado_490" data-name="Trazado 490" d="M1250.313,60.443c-3.659-2.55-6.843-2.5-9.081-1.837a4.467,4.467,0,0,0-3.173,4.7l.966,10.549,11.5,1.019C1250.519,74.872,1257.493,65.437,1250.313,60.443Zm-5.053,8.511a2.867,2.867,0,1,1,2.867-2.867A2.866,2.866,0,0,1,1245.26,68.954Z" transform="translate(-1181.147 -58.221)" fill="#3d3f68"/>
      <path id="Trazado_491" data-name="Trazado 491" d="M959.4,330.207v-5.3a3.239,3.239,0,0,1,3.347-3.237l36.563,1.251a3.154,3.154,0,0,1,3.036,2.957l.306,5.1Z" transform="translate(-917.219 -307.759)" fill="#3d3f68"/>
      <path id="Trazado_492" data-name="Trazado 492" d="M674.679,449.979a3.446,3.446,0,0,1,3.442-3.279H742.06a4.725,4.725,0,0,1,4.657,3.918l.053.312a4.059,4.059,0,0,1-4,4.752h-65.6a2.64,2.64,0,0,1-2.635-2.767Z" transform="translate(-647.398 -426.189)" fill="#303351"/>
      <g id="Grupo_903" data-name="Grupo 903" transform="translate(61.919 114.324)">
        <path id="Trazado_493" data-name="Trazado 493" d="M1371.174,2267.251c-13.2,7.508-24.219,7.038-36.679.491a2.329,2.329,0,0,1-1.251-2.186l.026-.528a2.338,2.338,0,0,1,3.215-2.054c10.818,4.409,18.955,6.827,32.5.143a2.339,2.339,0,0,1,3.363,1.943h0A2.331,2.331,0,0,1,1371.174,2267.251Z" transform="translate(-1333.24 -2260.727)" fill="#650865"/>
        <path id="Trazado_494" data-name="Trazado 494" d="M1900.226,2236.126l7.286-10.327a.508.508,0,0,0-.354-.8l-12.07-1.478a.592.592,0,0,0-.618.813,26,26,0,0,1,4.868,11.695A.51.51,0,0,0,1900.226,2236.126Z" transform="translate(-1864.796 -2223.519)" fill="#650865"/>
      </g>
      <g id="Grupo_904" data-name="Grupo 904" transform="translate(53.853 31.608)">
        <path id="Trazado_495" data-name="Trazado 495" d="M1251.8,667.063c13.289-8.21,24.63-8.136,37.682-1.869a2.408,2.408,0,0,1,1.367,2.2l-.005.544a2.408,2.408,0,0,1-3.231,2.233c-11.288-4.129-19.741-6.309-33.416,1.067a2.4,2.4,0,0,1-3.527-1.869h0A2.406,2.406,0,0,1,1251.8,667.063Z" transform="translate(-1246.952 -660.478)" fill="#650865"/>
        <path id="Trazado_496" data-name="Trazado 496" d="M1187.67,657.112,1180.563,668a.523.523,0,0,0,.4.808l12.46,1.067a.606.606,0,0,0,.6-.861,26.759,26.759,0,0,1-5.444-11.837A.519.519,0,0,0,1187.67,657.112Z" transform="translate(-1180.478 -656.872)" fill="#650865"/>
      </g>
      <g id="Grupo_907" data-name="Grupo 907" transform="translate(109.208 76.391)">
        <g id="Grupo_906" data-name="Grupo 906">
          <path id="Trazado_497" data-name="Trazado 497" d="M3347.026,3510.849s.855,1.346,1.067,5.111a.614.614,0,0,1-.607.65h-6.674a.4.4,0,0,1-.375-.518,10.671,10.671,0,0,1,4.213-5.591Z" transform="translate(-3281.729 -3404.616)" fill="url(#linear-gradient)"/>
          <path id="Trazado_498" data-name="Trazado 498" d="M3415.215,3462.354l-.38,3.168a.6.6,0,0,1-.517.523,5.084,5.084,0,0,1-1.41-.016.981.981,0,0,1-.808-.971V3462Z" transform="translate(-3349.628 -3358.677)" fill="url(#linear-gradient-2)"/>
          <path id="Trazado_499" data-name="Trazado 499" d="M2958.99,3510.305a9.321,9.321,0,0,1,1.251,4.709,1.176,1.176,0,0,1-1.188,1.151h-10.37a.5.5,0,0,1-.285-.9A45.31,45.31,0,0,1,2957,3510.3h1.985Z" transform="translate(-2910.208 -3404.426)" fill="url(#linear-gradient-3)"/>
          <path id="Trazado_500" data-name="Trazado 500" d="M3117.311,3418.515l-.808,3.912a.8.8,0,0,1-.956.634,3.01,3.01,0,0,1-.914-.38.921.921,0,0,1-.412-.945l.834-4.736Z" transform="translate(-3067.463 -3316.052)" fill="url(#linear-gradient-4)"/>
          <path id="Trazado_501" data-name="Trazado 501" d="M3125.314,2416.1s2.8,2.471,3.326,5.438-1.494,51.246-1.494,51.246-2.8.465-4.245-.406c0,0-1.711-31.331-3.015-38.569,0,0-6.827,32.455-8.717,38.316,0,0-2.7.327-3.569-.185,0,0,1.79-42.07,4.034-49.546Z" transform="translate(-3061.205 -2367.999)" fill="url(#linear-gradient-5)"/>
          <path id="Trazado_502" data-name="Trazado 502" d="M3336.825,2610.215a.424.424,0,0,1-.074-.01.283.283,0,0,1-.2-.344l1.188-4.562a.272.272,0,0,1,.122-.164l2.571-1.647a.283.283,0,1,1,.306.475l-2.476,1.589-1.162,4.456A.288.288,0,0,1,3336.825,2610.215Z" transform="translate(-3278.061 -2545.45)" fill="url(#linear-gradient-6)"/>
          <path id="Trazado_503" data-name="Trazado 503" d="M2728.081,1866.488c11.79-.977,14.868,1.463,14.868,1.463l-5.665,8.939s-11.584-.227-19.884-6.626a20.446,20.446,0,0,0,3.326-4.963A15.582,15.582,0,0,0,2728.081,1866.488Z" transform="translate(-2691.607 -1846.28)" fill="url(#linear-gradient-7)"/>
          <path id="Trazado_504" data-name="Trazado 504" d="M2562.787,1553.873a.36.36,0,0,1,.686-.137l1.5,3.21a3.352,3.352,0,0,1,.269,1.99l-.528,1.869a3.21,3.21,0,0,0,.66,2.566A22.46,22.46,0,0,0,2573.9,1570a20.14,20.14,0,0,1-3.326,4.963,20.321,20.321,0,0,1-7.075-9.826,1.585,1.585,0,0,1-1.114-1.568Z" transform="translate(-2544.772 -1550.967)" fill="url(#linear-gradient-8)"/>
          <path id="Trazado_505" data-name="Trazado 505" d="M2648.992,1853.391c4.15-4.472,12.054-6.494,16.632-7.323a4.2,4.2,0,0,1,4.694,2.661c2.059,5.539,7.661,19.937,8.749,22.413.892,2.033,1.822,4.013,2.413,5.253a1.492,1.492,0,0,1-.7,1.985,109.009,109.009,0,0,1-13.585,4.773.967.967,0,0,1-1.236-.929,3.01,3.01,0,0,0-.427-1.547l-10.639-17.724c-6.631,7.35-12.434,8.025-16.9,6.415a33.735,33.735,0,0,0,1.479-6.964C2646.062,1861.274,2648.992,1853.391,2648.992,1853.391Z" transform="translate(-2616.399 -1827.999)" fill="url(#linear-gradient-9)"/>
          <path id="Trazado_506" data-name="Trazado 506" d="M2424.4,2086.062l2.154-1.262c3.849,2.645,7.957,4.245,10.592,3.791a33.675,33.675,0,0,1-1.479,6.964C2429.8,2093.443,2424.4,2086.062,2424.4,2086.062Z" transform="translate(-2414.077 -2054.19)" fill="url(#linear-gradient-10)"/>
          <path id="Trazado_507" data-name="Trazado 507" d="M2228.984,2034.135a25.8,25.8,0,0,1,5.317-1.357s4.567-2.672,5.887-3.2c1.093-.438,1.563,1.2,1.69,1.763.026.116.037.185.037.185l-.169,1.088-4.615,2.054a5.925,5.925,0,0,1-3.152.459l-4.926-.644a.185.185,0,0,1-.158-.148A.177.177,0,0,1,2228.984,2034.135Z" transform="translate(-2228.888 -2001.815)" fill="url(#linear-gradient-11)"/>
          <path id="Trazado_508" data-name="Trazado 508" d="M2942.26,1691.8l3.532,8.627s-4.06,2.809-7.329,2.545l-1.763-7.756Z" transform="translate(-2899.328 -1681.94)" fill="url(#linear-gradient-12)"/>
          <g id="Grupo_905" data-name="Grupo 905" transform="translate(33.567)">
            <path id="Trazado_509" data-name="Trazado 509" d="M2883.055,1571.295c-.079.116-2.555,9.06-2.555,9.06l5.137,1.3,3.606-8.131S2884.407,1569.373,2883.055,1571.295Z" transform="translate(-2879.663 -1567.317)" fill="url(#linear-gradient-13)"/>
            <path id="Trazado_510" data-name="Trazado 510" d="M2872.288,1512.5l-1.563,4.43a.73.73,0,0,1-.079.158c-.211.3-1.019,1.283-1.975.4a5.942,5.942,0,0,0-2.413-1.658.652.652,0,0,0-.744.47,28.361,28.361,0,0,0-.866,4.314.659.659,0,0,0,.533.707,21.076,21.076,0,0,0,4.9.407.658.658,0,0,0,.554-.38c.491-1.072,1.99-4.313,2.545-5.153.523-.787,1.806-.766,2.344-.718a.66.66,0,0,0,.486-.158,1.7,1.7,0,0,0,.106-2.73.654.654,0,0,1,.016-.945,1.7,1.7,0,0,0,.216-2.529,2.4,2.4,0,0,0-2.867-.686.656.656,0,0,1-.792-.29.51.51,0,0,0-.533-.248.649.649,0,0,1-.692-.66,1.959,1.959,0,0,0-1.515-2.043c-2.244-.7-3.643,1.468-3.781,3.089s2.339,2.239,3.8,2.128c1.109-.084,1.927,1.014,2.26,1.547A.61.61,0,0,1,2872.288,1512.5Z" transform="translate(-2864.646 -1505.058)" fill="url(#linear-gradient-14)"/>
            <path id="Trazado_511" data-name="Trazado 511" d="M3015.3,1693.413s.364-2.809,1.531-2.946,2.307.824,1.146,2.4C3016.53,1694.828,3015.3,1693.413,3015.3,1693.413Z" transform="translate(-3007.345 -1680.665)" fill="url(#linear-gradient-15)"/>
          </g>
        </g>
      </g>
      <rect id="Rectángulo_692" data-name="Rectángulo 692" width="80.533" height="37.793" transform="translate(53.873 68.482) rotate(-0.184)" fill="#8587a1"/>
      <path id="Trazado_512" data-name="Trazado 512" d="M1341.594,1438.537l.069,21.484a3.453,3.453,0,0,0-3.163,3.59c0,.063.011.047.016.29l-65,.211c0-.248.005-.232.005-.29a3.379,3.379,0,0,0-3.184-3.516c-.026,0-.069-.053-.069-.053l-.069-21c2.962-.01,3.247-2.017,3.237-3.928a.213.213,0,0,0-.021-.111l65-.211a.248.248,0,0,0-.016.111A3.329,3.329,0,0,0,1341.594,1438.537Z" transform="translate(-1211.61 -1362.308)" fill="#fff" opacity="0.5"/>
      <g id="Grupo_909" data-name="Grupo 909" transform="translate(82.445 75.289)">
        <circle id="Elipse_41" data-name="Elipse 41" cx="11.811" cy="11.811" r="11.811" fill="url(#linear-gradient-16)"/>
        <g id="Grupo_908" data-name="Grupo 908" transform="translate(6.695 3.115)">
          <path id="Trazado_513" data-name="Trazado 513" d="M1852.749,1559.869l-.005-1.251a10.177,10.177,0,0,1-3.506-.75.717.717,0,0,1-.4-.85l.312-1.167a.73.73,0,0,1,.987-.481,8.463,8.463,0,0,0,3.236.671c1.257-.005,2.186-.433,2.186-1.3,0-.787-.729-1.251-2.471-1.716-2.487-.671-4.277-1.753-4.287-3.939-.005-1.975,1.436-3.49,3.939-3.9l-.005-1.251a.726.726,0,0,1,.723-.729h.734a.726.726,0,0,1,.729.723l.005,1.119a9.194,9.194,0,0,1,2.777.491.719.719,0,0,1,.454.871l-.29,1.077a.721.721,0,0,1-.956.491,7.494,7.494,0,0,0-2.724-.486c-1.489.005-1.911.623-1.911,1.177,0,.681.9,1.146,2.835,1.732,2.767.818,3.918,1.964,3.923,4.028.005,1.89-1.394,3.6-4.113,4.029l.005,1.4a.726.726,0,0,1-.723.729h-.734A.708.708,0,0,1,1852.749,1559.869Z" transform="translate(-1848.8 -1543.2)" fill="#fff"/>
        </g>
      </g>
      <path id="Trazado_514" data-name="Trazado 514" d="M1222.432,1402.871a.191.191,0,0,1-.011-.058l-.021-7.286a.167.167,0,0,1,.158-.164l19.641-.063a.16.16,0,0,1,.164.158.167.167,0,0,1-.158.164l-19.477.063.021,7.128a.164.164,0,0,1-.317.058Z" transform="translate(-1166.333 -1324.704)" fill="#fff"/>
      <path id="Trazado_515" data-name="Trazado 515" d="M2288.811,1888.277a.2.2,0,0,1-.01-.058.167.167,0,0,1,.158-.164l19.477-.063-.021-7.128a.167.167,0,0,1,.158-.164.16.16,0,0,1,.164.158l.021,7.286a.164.164,0,0,1-.047.116.153.153,0,0,1-.111.047l-19.641.063A.147.147,0,0,1,2288.811,1888.277Z" transform="translate(-2176.429 -1784.476)" fill="#fff"/>
      <rect id="Rectángulo_693" data-name="Rectángulo 693" width="80.533" height="37.793" transform="translate(52.854 69.443) rotate(-0.184)" fill="#3d3f68"/>
      <path id="Trazado_516" data-name="Trazado 516" d="M1322.294,1456.638l.069,21.484a3.453,3.453,0,0,0-3.163,3.59c0,.063.011.047.016.29l-65,.211c0-.248.005-.232.005-.29a3.379,3.379,0,0,0-3.184-3.516c-.026,0-.068-.053-.068-.053l-.069-21c2.962-.01,3.247-2.017,3.237-3.928a.212.212,0,0,0-.021-.111l65-.211a.246.246,0,0,0-.016.111A3.326,3.326,0,0,0,1322.294,1456.638Z" transform="translate(-1193.329 -1379.453)" fill="#fff" opacity="0.5"/>
      <g id="Grupo_911" data-name="Grupo 911" transform="translate(81.431 76.245)">
        <circle id="Elipse_42" data-name="Elipse 42" cx="11.811" cy="11.811" r="11.811" fill="url(#linear-gradient-17)"/>
        <g id="Grupo_910" data-name="Grupo 910" transform="translate(6.69 3.115)">
          <path id="Trazado_517" data-name="Trazado 517" d="M1833.449,1577.968l-.005-1.251a10.178,10.178,0,0,1-3.506-.75.718.718,0,0,1-.4-.85l.312-1.167a.73.73,0,0,1,.987-.48,8.466,8.466,0,0,0,3.237.671c1.257-.005,2.186-.433,2.186-1.3,0-.787-.729-1.251-2.471-1.716-2.487-.671-4.277-1.753-4.287-3.939-.005-1.975,1.436-3.49,3.939-3.9l-.005-1.251a.726.726,0,0,1,.723-.729h.734a.726.726,0,0,1,.729.723l.005,1.119a9.185,9.185,0,0,1,2.777.491.719.719,0,0,1,.454.871l-.29,1.077a.721.721,0,0,1-.956.491,7.49,7.49,0,0,0-2.724-.486c-1.489.005-1.911.623-1.911,1.177,0,.681.9,1.146,2.835,1.732,2.767.818,3.918,1.964,3.923,4.029.005,1.89-1.394,3.6-4.113,4.028l.005,1.4a.726.726,0,0,1-.723.729h-.734A.7.7,0,0,1,1833.449,1577.968Z" transform="translate(-1829.5 -1561.3)" fill="#fff"/>
        </g>
      </g>
      <path id="Trazado_518" data-name="Trazado 518" d="M1203.232,1421.071a.187.187,0,0,1-.011-.058l-.021-7.286a.167.167,0,0,1,.158-.164L1223,1413.5a.16.16,0,0,1,.164.158.167.167,0,0,1-.158.164l-19.477.063.021,7.128a.167.167,0,0,1-.158.164A.172.172,0,0,1,1203.232,1421.071Z" transform="translate(-1148.147 -1341.943)" fill="#fff"/>
      <path id="Trazado_519" data-name="Trazado 519" d="M2269.51,1906.477a.188.188,0,0,1-.01-.058.167.167,0,0,1,.158-.164l19.477-.063-.021-7.128a.167.167,0,0,1,.158-.164.16.16,0,0,1,.164.158l.021,7.286a.164.164,0,0,1-.048.116.152.152,0,0,1-.111.048l-19.641.063A.154.154,0,0,1,2269.51,1906.477Z" transform="translate(-2158.148 -1801.715)" fill="#fff"/>
      <rect id="Rectángulo_694" data-name="Rectángulo 694" width="80.533" height="37.793" transform="translate(51.922 70.675) rotate(-0.291)" fill="#8587a1"/>
      <path id="Trazado_520" data-name="Trazado 520" d="M1305.178,1477.469l.111,21.484a3.448,3.448,0,0,0-3.173,3.58c0,.063-.005.026,0,.274l-65,.333c0-.248.005-.211.005-.275a3.355,3.355,0,0,0-3.168-3.5c-.026,0-.047-.048-.047-.048l-.106-21c2.962-.016,3.221-2.038,3.215-3.955a.292.292,0,0,0-.037-.127l65-.333c-.005,0,.005.068.005.127A3.327,3.327,0,0,0,1305.178,1477.469Z" transform="translate(-1177.131 -1399.154)" fill="#bdd0fb"/>
      <g id="Grupo_913" data-name="Grupo 913" transform="translate(75.603 72.549)">
        <circle id="Elipse_43" data-name="Elipse 43" cx="11.811" cy="11.811" r="11.811" transform="translate(0 16.703) rotate(-45)" fill="#3d3f68"/>
        <g id="Grupo_912" data-name="Grupo 912" transform="translate(11.583 7.994)">
          <path id="Trazado_521" data-name="Trazado 521" d="M1815.764,1600.384l-.005-1.251a10.238,10.238,0,0,1-3.511-.744.717.717,0,0,1-.4-.85l.312-1.167a.728.728,0,0,1,.987-.48,8.495,8.495,0,0,0,3.242.665c1.256-.005,2.186-.438,2.18-1.309-.005-.787-.729-1.251-2.476-1.711-2.492-.665-4.282-1.742-4.293-3.933-.01-1.975,1.426-3.5,3.933-3.912l-.005-1.251a.733.733,0,0,1,.723-.734l.734-.005a.734.734,0,0,1,.734.723l.005,1.12a9.249,9.249,0,0,1,2.782.486.725.725,0,0,1,.459.871l-.285,1.077a.728.728,0,0,1-.956.5,7.633,7.633,0,0,0-2.73-.48c-1.489.005-1.911.628-1.906,1.177.005.681.9,1.146,2.835,1.726,2.767.813,3.923,1.959,3.934,4.018.01,1.89-1.383,3.6-4.1,4.039l.005,1.4a.733.733,0,0,1-.723.734l-.734.005A.708.708,0,0,1,1815.764,1600.384Z" transform="translate(-1811.799 -1583.7)" fill="#fff"/>
        </g>
      </g>
      <path id="Trazado_522" data-name="Trazado 522" d="M1180.874,1443.75a.167.167,0,0,1-.037-.1l-.037-7.286a.163.163,0,0,1,.047-.116.152.152,0,0,1,.111-.048l19.884-.1a.167.167,0,0,1,.164.158.163.163,0,0,1-.158.164l-19.725.1.037,7.128a.163.163,0,0,1-.158.164A.184.184,0,0,1,1180.874,1443.75Z" transform="translate(-1126.93 -1363.35)" fill="#303351"/>
      <path id="Trazado_523" data-name="Trazado 523" d="M2253.137,1927.156a.167.167,0,0,1-.037-.1.163.163,0,0,1,.158-.164l19.477-.1-.037-7.128a.163.163,0,0,1,.158-.164.168.168,0,0,1,.164.158l.037,7.286a.164.164,0,0,1-.048.116.152.152,0,0,1-.111.047l-19.641.1A.146.146,0,0,1,2253.137,1927.156Z" transform="translate(-2142.614 -1821.228)" fill="#303351"/>
      <g id="Grupo_914" data-name="Grupo 914" transform="translate(64.836 86.321)">
        <path id="Trazado_524" data-name="Trazado 524" d="M1395.194,1711.631a3.347,3.347,0,1,1-3.363-3.332A3.349,3.349,0,0,1,1395.194,1711.631Z" transform="translate(-1388.499 -1707.499)" fill="#3d3f68"/>
        <circle id="Elipse_44" data-name="Elipse 44" cx="3.347" cy="3.347" r="3.347" transform="matrix(0.177, -0.984, 0.984, 0.177, 49.81, 6.589)" fill="#3d3f68"/>
      </g>
      <g id="Grupo_923" data-name="Grupo 923" transform="translate(73.38 27.345)">
        <g id="Grupo_916" data-name="Grupo 916" transform="translate(0 15.711)">
          <circle id="Elipse_45" data-name="Elipse 45" cx="7.033" cy="7.033" r="7.033" transform="translate(0 9.946) rotate(-45)" fill="#650865"/>
          <circle id="Elipse_46" data-name="Elipse 46" cx="6.8" cy="6.8" r="6.8" transform="translate(0.329 9.946) rotate(-45)" fill="#650865"/>
          <path id="Trazado_525" data-name="Trazado 525" d="M1627.792,942.276a.287.287,0,0,1-.116-.026.259.259,0,0,1-.116-.354,6.514,6.514,0,0,1,5.845-3.6,6.726,6.726,0,0,1,1.177.106.263.263,0,1,1-.1.517,6.177,6.177,0,0,0-1.088-.095,5.99,5.99,0,0,0-5.37,3.305A.271.271,0,0,1,1627.792,942.276Z" transform="translate(-1623.453 -934.89)" fill="#fff" opacity="0.5"/>
          <circle id="Elipse_47" data-name="Elipse 47" cx="5.755" cy="5.755" r="5.755" transform="translate(1.955 10.094) rotate(-45)" fill="#fff" opacity="0.78"/>
          <g id="Grupo_915" data-name="Grupo 915" transform="translate(7.557 6.029)">
            <path id="Trazado_526" data-name="Trazado 526" d="M1695.423,996.242v-.628a5.114,5.114,0,0,1-1.758-.38.362.362,0,0,1-.2-.428l.158-.581a.364.364,0,0,1,.5-.238,4.256,4.256,0,0,0,1.621.343c.628,0,1.1-.211,1.1-.649,0-.4-.364-.628-1.235-.861-1.246-.343-2.144-.887-2.144-1.98,0-.993.723-1.748,1.98-1.948v-.628a.365.365,0,0,1,.364-.364h.37a.365.365,0,0,1,.364.364v.56a4.8,4.8,0,0,1,1.394.248.364.364,0,0,1,.227.438l-.148.539a.369.369,0,0,1-.481.248,3.807,3.807,0,0,0-1.367-.248c-.745,0-.961.312-.961.586,0,.343.449.576,1.415.871,1.383.417,1.959.993,1.959,2.022,0,.95-.7,1.8-2.07,2.012v.7a.365.365,0,0,1-.364.364h-.37A.362.362,0,0,1,1695.423,996.242Z" transform="translate(-1693.451 -987.9)" fill="#650865"/>
          </g>
        </g>
        <g id="Grupo_918" data-name="Grupo 918" transform="translate(12.651 0)">
          <circle id="Elipse_48" data-name="Elipse 48" cx="12.244" cy="12.244" r="12.244" transform="translate(0 17.315) rotate(-45)" fill="#650865"/>
          <circle id="Elipse_49" data-name="Elipse 49" cx="11.837" cy="11.837" r="11.837" transform="translate(0.575 17.315) rotate(-45)" fill="#650865"/>
          <path id="Trazado_527" data-name="Trazado 527" d="M1928.292,698.736a.288.288,0,0,1-.116-.026.259.259,0,0,1-.116-.354,11.143,11.143,0,0,1,9.995-6.156,11.7,11.7,0,0,1,2.017.18.263.263,0,1,1-.1.517,10.668,10.668,0,0,0-11.447,5.692A.266.266,0,0,1,1928.292,698.736Z" transform="translate(-1920.737 -686.072)" fill="#fff" opacity="0.5"/>
          <circle id="Elipse_50" data-name="Elipse 50" cx="10.021" cy="10.021" r="10.021" transform="translate(3.403 17.573) rotate(-45)" fill="#fff" opacity="0.78"/>
          <g id="Grupo_917" data-name="Grupo 917" transform="translate(13.159 10.489)">
            <path id="Trazado_528" data-name="Trazado 528" d="M2042.581,789.33v-1.088a8.827,8.827,0,0,1-3.057-.665.628.628,0,0,1-.349-.744l.275-1.014a.634.634,0,0,1,.861-.417,7.365,7.365,0,0,0,2.825.6c1.093,0,1.911-.37,1.911-1.13,0-.686-.628-1.093-2.154-1.5-2.17-.591-3.728-1.542-3.728-3.448,0-1.727,1.262-3.041,3.448-3.395v-1.088a.635.635,0,0,1,.634-.634h.639a.635.635,0,0,1,.634.634v.977a8.186,8.186,0,0,1,2.423.433.632.632,0,0,1,.4.76l-.253.94a.632.632,0,0,1-.834.428,6.622,6.622,0,0,0-2.376-.433c-1.3,0-1.669.539-1.669,1.019,0,.591.781,1,2.466,1.521,2.413.723,3.411,1.726,3.411,3.527,0,1.653-1.225,3.136-3.6,3.506v1.22a.635.635,0,0,1-.634.634h-.639A.628.628,0,0,1,2042.581,789.33Z" transform="translate(-2039.152 -774.8)" fill="#650865"/>
          </g>
        </g>
        <g id="Grupo_920" data-name="Grupo 920" transform="translate(20.594 26.85)">
          <circle id="Elipse_51" data-name="Elipse 51" cx="12.598" cy="12.598" r="12.598" transform="translate(0 17.816) rotate(-45)" fill="#650865"/>
          <circle id="Elipse_52" data-name="Elipse 52" cx="12.181" cy="12.181" r="12.181" transform="translate(0.59 17.816) rotate(-45)" fill="#650865"/>
          <path id="Trazado_529" data-name="Trazado 529" d="M2082.892,1210.811a.288.288,0,0,1-.116-.026.259.259,0,0,1-.116-.354,11.462,11.462,0,0,1,10.28-6.331,11.832,11.832,0,0,1,2.075.185.263.263,0,0,1-.095.517,11.267,11.267,0,0,0-1.98-.18,10.937,10.937,0,0,0-9.81,6.04A.266.266,0,0,1,2082.892,1210.811Z" transform="translate(-2075.118 -1197.794)" fill="#fff" opacity="0.5"/>
          <circle id="Elipse_53" data-name="Elipse 53" cx="10.312" cy="10.312" r="10.312" transform="translate(3.496 18.081) rotate(-45)" fill="#fff" opacity="0.78"/>
          <g id="Grupo_919" data-name="Grupo 919" transform="translate(13.542 10.783)">
            <path id="Trazado_530" data-name="Trazado 530" d="M2200.383,1303.858v-1.119a9.2,9.2,0,0,1-3.147-.681.646.646,0,0,1-.359-.766l.285-1.045a.653.653,0,0,1,.887-.428,7.559,7.559,0,0,0,2.9.612c1.125,0,1.964-.38,1.964-1.167,0-.708-.65-1.125-2.212-1.547-2.233-.612-3.838-1.584-3.838-3.548,0-1.774,1.3-3.131,3.548-3.5v-1.119a.654.654,0,0,1,.655-.655h.66a.654.654,0,0,1,.655.655v1.009a8.206,8.206,0,0,1,2.492.449.649.649,0,0,1,.406.787l-.264.966a.649.649,0,0,1-.861.438,6.828,6.828,0,0,0-2.445-.443c-1.336,0-1.716.554-1.716,1.051,0,.612.8,1.03,2.54,1.563,2.481.745,3.511,1.774,3.511,3.627,0,1.7-1.262,3.226-3.7,3.606v1.257a.655.655,0,0,1-.655.655h-.66A.658.658,0,0,1,2200.383,1303.858Z" transform="translate(-2196.853 -1288.9)" fill="#650865"/>
          </g>
        </g>
        <g id="Grupo_922" data-name="Grupo 922" transform="translate(41.518 14.451)">
          <circle id="Elipse_54" data-name="Elipse 54" cx="9.229" cy="9.229" r="9.229" transform="translate(0 13.052) rotate(-45)" fill="#650865"/>
          <circle id="Elipse_55" data-name="Elipse 55" cx="8.923" cy="8.923" r="8.923" transform="translate(0.433 13.052) rotate(-45)" fill="#650865"/>
          <path id="Trazado_531" data-name="Trazado 531" d="M2439.892,941.058a.288.288,0,0,1-.116-.026.259.259,0,0,1-.116-.354,8.472,8.472,0,0,1,7.592-4.678,8.691,8.691,0,0,1,1.531.137.263.263,0,1,1-.095.517,8.172,8.172,0,0,0-1.441-.132,7.936,7.936,0,0,0-7.123,4.388A.258.258,0,0,1,2439.892,941.058Z" transform="translate(-2434.194 -931.451)" fill="#fff" opacity="0.5"/>
          <circle id="Elipse_56" data-name="Elipse 56" cx="7.555" cy="7.555" r="7.555" transform="translate(2.563 13.246) rotate(-45)" fill="#fff" opacity="0.78"/>
          <g id="Grupo_921" data-name="Grupo 921" transform="translate(9.922 7.886)">
            <path id="Trazado_532" data-name="Trazado 532" d="M2527.188,1010.172v-.824a6.646,6.646,0,0,1-2.307-.5.476.476,0,0,1-.264-.56l.211-.766a.476.476,0,0,1,.649-.312,5.608,5.608,0,0,0,2.128.449c.823,0,1.441-.28,1.441-.855,0-.517-.475-.824-1.621-1.135-1.637-.449-2.809-1.162-2.809-2.6,0-1.3.95-2.291,2.6-2.561v-.824a.482.482,0,0,1,.48-.48h.481a.482.482,0,0,1,.48.48v.739a6.2,6.2,0,0,1,1.827.327.474.474,0,0,1,.3.576l-.19.708a.474.474,0,0,1-.628.322,5.019,5.019,0,0,0-1.8-.327c-.977,0-1.257.406-1.257.771,0,.449.586.755,1.858,1.146,1.816.544,2.571,1.3,2.571,2.656,0,1.246-.924,2.365-2.714,2.645v.919a.482.482,0,0,1-.48.48h-.48A.46.46,0,0,1,2527.188,1010.172Z" transform="translate(-2524.601 -999.2)" fill="#650865"/>
          </g>
        </g>
      </g>
    </g>
  </g>
</svg>
